<svg id="SvgjsSvg1017" xmlns="http://www.w3.org/2000/svg" version="1.1" xmlns:xlink="http://www.w3.org/1999/xlink" xmlns:svgjs="http://svgjs.com/svgjs" width="32" height="26"><defs id="SvgjsDefs1018"></defs><path id="SvgjsPath1019" d="M813.5 1501L784.5 1501C783.672 1501 783 1500.33 783 1499.5L783 1479.5C783 1478.67 783.672 1478 784.5 1478L790.906 1478L793.309 1475.6C793.582 1475.24 794.012 1475 794.5 1475L803.5 1475C803.921 1475 804.301 1475.17 804.573 1475.45L804.5749999999999 1475.45L807.121 1478L813.5 1478C814.328 1478 815 1478.67 815 1479.5L815 1499.5C815 1500.33 814.328 1501 813.5 1501ZM799 1480C794.029 1480 790 1484.03 790 1489C790 1493.97 794.029 1498 799 1498C803.971 1498 808 1493.97 808 1489C808 1484.03 803.971 1480 799 1480ZM805 1489C805 1485.69 802.314 1483 799 1483C795.686 1483 793 1485.69 793 1489C793 1492.31 795.686 1495 799 1495C802.314 1495 805 1492.31 805 1489Z "                                                                                                                                                                                                                    fill="#fgfd"
                                                                                                                                                                                                                     transform="matrix(1,0,0,1,-783,-1475)"></path></svg>
