<svg id="SvgjsSvg1000" xmlns="http://www.w3.org/2000/svg" version="1.1" xmlns:xlink="http://www.w3.org/1999/xlink" xmlns:svgjs="http://svgjs.com/svgjs" width="40" height="30"><defs id="SvgjsDefs1001"></defs><path id="SvgjsPath1007" d="M400.486 1176.05C400.56399999999996 1175.85 400.606 1175.6299999999999 400.606 1175.3999999999999C400.606 1174.4099999999999 399.8 1173.6 398.806 1173.6C398.026 1173.6 397.363 1174.1 397.113 1174.79L387.526 1199.95C387.449 1200.15 387.406 1200.3700000000001 387.406 1200.6000000000001C387.406 1201.5900000000001 388.212 1202.4 389.206 1202.4C389.986 1202.4 390.65000000000003 1201.9 390.90000000000003 1201.21ZM413.225 1188C413.225 1187.45 412.97700000000003 1186.97 412.593 1186.64L405.498 1179.5500000000002L405.496 1179.5500000000002C405.169 1179.2100000000003 404.71299999999997 1179.0000000000002 404.20599999999996 1179.0000000000002C403.21199999999993 1179.0000000000002 402.40599999999995 1179.8100000000002 402.40599999999995 1180.8000000000002C402.40599999999995 1181.3100000000002 402.61699999999996 1181.7600000000002 402.95399999999995 1182.0900000000001L402.95199999999994 1182.0900000000001L408.86999999999995 1188.0100000000002L402.93399999999997 1193.9500000000003L402.936 1193.9500000000003C402.621 1194.2700000000002 402.42499999999995 1194.7100000000003 402.42499999999995 1195.2000000000003C402.42499999999995 1196.1900000000003 403.23099999999994 1197.0000000000002 404.22499999999997 1197.0000000000002C404.71299999999997 1197.0000000000002 405.15299999999996 1196.8000000000002 405.47799999999995 1196.4900000000002L405.4789999999999 1196.4900000000002L412.6789999999999 1189.2900000000002L412.67799999999994 1189.2900000000002C413.01399999999995 1188.9600000000003 413.22499999999997 1188.5100000000002 413.22499999999997 1188.0000000000002ZM385.079 1182.09L379.161 1188.01L385.098 1193.95L385.096 1193.95C385.411 1194.27 385.606 1194.71 385.606 1195.2C385.606 1196.19 384.8 1197 383.806 1197C383.31899999999996 1197 382.878 1196.8 382.554 1196.49L382.55199999999996 1196.49L375.352 1189.29L375.354 1189.29C375.017 1188.96 374.806 1188.51 374.806 1188C374.806 1187.45 375.054 1186.97 375.438 1186.64L382.533 1179.5500000000002L382.535 1179.5500000000002C382.862 1179.2100000000003 383.31800000000004 1179.0000000000002 383.82500000000005 1179.0000000000002C384.8190000000001 1179.0000000000002 385.62500000000006 1179.8100000000002 385.62500000000006 1180.8000000000002C385.62500000000006 1181.3100000000002 385.41400000000004 1181.7600000000002 385.07700000000006 1182.0900000000001Z " fill="#454546" transform="matrix(1,0,0,1,-374,-1173)"></path></svg>