<svg id="SvgjsSvg1011" xmlns="http://www.w3.org/2000/svg" version="1.1" xmlns:xlink="http://www.w3.org/1999/xlink" xmlns:svgjs="http://svgjs.com/svgjs" width="32" height="29"><defs id="SvgjsDefs1012"></defs><path id="SvgjsPath1013" d="M1218.96 1181.94C1215.3600000000001 1178.42 1210.43 1176.25 1205 1176.25C1199.57 1176.25 1194.64 1178.42 1191.04 1181.94L1189.19 1179.55C1193.31 1175.6499999999999 1198.8700000000001 1173.25 1205 1173.25C1211.13 1173.25 1216.69 1175.65 1220.81 1179.55ZM1205 1180.75C1209.4 1180.75 1213.36 1182.58 1216.18 1185.52L1214.3100000000002 1187.93C1212.0200000000002 1185.3700000000001 1208.7000000000003 1183.75 1205.0000000000002 1183.75C1201.3000000000002 1183.75 1197.9800000000002 1185.37 1195.6900000000003 1187.93L1193.8200000000004 1185.52C1196.6400000000003 1182.58 1200.6000000000004 1180.75 1205.0000000000005 1180.75ZM1205 1188.25C1207.67 1188.25 1210.03 1189.56 1211.48 1191.58L1209.83 1193.6999999999998C1208.74 1192.2199999999998 1206.99 1191.2499999999998 1205 1191.2499999999998C1203.01 1191.2499999999998 1201.26 1192.2199999999998 1200.17 1193.6999999999998L1198.52 1191.58C1199.97 1189.56 1202.33 1188.25 1205 1188.25ZM1202 1198.75C1202 1200.41 1203.34 1201.75 1205 1201.75C1206.66 1201.75 1208 1200.41 1208 1198.75C1208 1197.09 1206.66 1195.75 1205 1195.75C1203.34 1195.75 1202 1197.09 1202 1198.75Z " fill="#454546" transform="matrix(1,0,0,1,-1189,-1173)"></path></svg>