<svg id="SvgjsSvg1014" xmlns="http://www.w3.org/2000/svg" version="1.1" xmlns:xlink="http://www.w3.org/1999/xlink" xmlns:svgjs="http://svgjs.com/svgjs" width="36" height="21"><defs id="SvgjsDefs1015"></defs><path id="SvgjsPath1016" d="M409.549 1487.57C409.548 1487.58 409.546 1487.6 409.546 1487.61C409.545 1487.62 409.544 1487.6299999999999 409.543 1487.6299999999999C409.543 1487.6399999999999 409.541 1487.6599999999999 409.539 1487.6699999999998C409.538 1487.6799999999998 409.537 1487.6899999999998 409.534 1487.6999999999998L409.534 1487.7099999999998C409.49 1487.9899999999998 409.36199999999997 1488.2499999999998 409.166 1488.4499999999998C408.79699999999997 1488.8999999999999 408.393 1489.3199999999997 407.987 1489.7299999999998C405.79400000000004 1491.9599999999998 403.27700000000004 1493.9399999999998 400.52200000000005 1495.3799999999999C398.761 1496.3 396.88000000000005 1497.05 394.92800000000005 1497.3999999999999C392.78200000000004 1497.8 390.63400000000007 1497.78 388.50000000000006 1497.31C384.80600000000004 1496.51 381.46100000000007 1494.51 378.5350000000001 1492.1299999999999C377.1760000000001 1491.02 375.84100000000007 1489.81 374.7180000000001 1488.4499999999998C374.22600000000006 1487.85 374.22600000000006 1487.1499999999999 374.7180000000001 1486.5499999999997C375.0870000000001 1486.0999999999997 375.49000000000007 1485.6799999999998 375.8960000000001 1485.2699999999998C378.08900000000006 1483.0399999999997 380.60600000000005 1481.0599999999997 383.3620000000001 1479.6199999999997C385.12200000000007 1478.6999999999996 387.0040000000001 1477.9499999999996 388.9550000000001 1477.5999999999997C391.1010000000001 1477.1999999999996 393.2490000000001 1477.2199999999996 395.38400000000007 1477.6899999999996C399.07700000000006 1478.4899999999996 402.42300000000006 1480.4899999999996 405.34800000000007 1482.8699999999997C406.7060000000001 1483.9799999999996 408.0420000000001 1485.1899999999996 409.1650000000001 1486.5499999999997C409.3620000000001 1486.7499999999998 409.49000000000007 1487.0099999999998 409.5330000000001 1487.2899999999997C409.5330000000001 1487.2899999999997 409.5330000000001 1487.2999999999997 409.53400000000005 1487.2999999999997C409.53600000000006 1487.3099999999997 409.53700000000003 1487.3199999999997 409.53900000000004 1487.3299999999997C409.54 1487.3499999999997 409.54200000000003 1487.3599999999997 409.54300000000006 1487.3699999999997C409.54300000000006 1487.3699999999997 409.54400000000004 1487.3799999999997 409.5450000000001 1487.3899999999996C409.54600000000005 1487.3999999999996 409.5470000000001 1487.4199999999996 409.54800000000006 1487.4299999999996C409.54900000000004 1487.4599999999996 409.55000000000007 1487.4799999999996 409.55000000000007 1487.4999999999995C409.55000000000007 1487.5199999999995 409.55000000000007 1487.5499999999995 409.5490000000001 1487.5699999999995ZM391.95 1480.62C388.305 1480.62 385.34999999999997 1483.58 385.34999999999997 1487.2199999999998C385.34999999999997 1490.87 388.30499999999995 1493.8199999999997 391.95 1493.8199999999997C395.59499999999997 1493.8199999999997 398.55 1490.8699999999997 398.55 1487.2199999999998C398.55 1483.5799999999997 395.595 1480.62 391.95 1480.62ZM395.25 1487.22C395.25 1485.4 393.772 1483.93 391.95 1483.93C390.127 1483.93 388.65 1485.4 388.65 1487.22C388.65 1489.05 390.12699999999995 1490.52 391.95 1490.52C393.772 1490.52 395.25 1489.05 395.25 1487.22Z " fill="#454546" transform="matrix(1,0,0,1,-374,-1477)"></path></svg>