<svg id="SvgjsSvg1020" xmlns="http://www.w3.org/2000/svg" version="1.1" xmlns:xlink="http://www.w3.org/1999/xlink" xmlns:svgjs="http://svgjs.com/svgjs" width="32" height="32"><defs id="SvgjsDefs1021"></defs><path id="SvgjsPath1022" d="M1206 1494C1203.76 1494 1201.81 1492.77 1200.78 1490.96L1200.19 1489.48C1200.0700000000002 1489 1200 1488.51 1200 1488C1200 1484.69 1202.69 1482 1206 1482C1209.31 1482 1212 1484.69 1212 1488C1212 1491.31 1209.31 1494 1206 1494ZM1214.56 1481.56C1214.29 1481.83 1213.9099999999999 1482 1213.5 1482C1212.67 1482 1212 1481.33 1212 1480.5C1212 1480.08 1212.17 1479.71 1212.44 1479.44L1215.94 1475.94C1216.21 1475.67 1216.5900000000001 1475.5 1217 1475.5C1217.83 1475.5 1218.5 1476.17 1218.5 1477C1218.5 1477.41 1218.33 1477.79 1218.06 1478.06ZM1196.06 1500.06C1195.79 1500.33 1195.4099999999999 1500.5 1195 1500.5C1194.17 1500.5 1193.5 1499.83 1193.5 1499C1193.5 1498.59 1193.67 1498.21 1193.94 1497.94L1197.44 1494.44C1197.71 1494.17 1198.0900000000001 1494 1198.5 1494C1199.33 1494 1200 1494.67 1200 1495.5C1200 1495.91 1199.83 1496.29 1199.56 1496.56ZM1198.5 1482C1198.09 1482 1197.71 1481.83 1197.44 1481.56L1193.94 1478.06C1193.67 1477.79 1193.5 1477.4099999999999 1193.5 1477C1193.5 1476.17 1194.17 1475.5 1195 1475.5C1195.41 1475.5 1195.79 1475.67 1196.06 1475.94L1199.56 1479.44C1199.83 1479.71 1200 1480.0800000000002 1200 1480.5C1200 1481.33 1199.33 1482 1198.5 1482ZM1206 1485C1204.34 1485 1203 1486.34 1203 1488C1203 1489.66 1204.34 1491 1206 1491C1207.66 1491 1209 1489.66 1209 1488C1209 1486.34 1207.66 1485 1206 1485ZM1220.5 1489.5L1216.5 1489.5C1215.67 1489.5 1215 1488.83 1215 1488C1215 1487.17 1215.67 1486.5 1216.5 1486.5L1220.5 1486.5C1221.33 1486.5 1222 1487.17 1222 1488C1222 1488.83 1221.33 1489.5 1220.5 1489.5ZM1206 1479C1205.17 1479 1204.5 1478.33 1204.5 1477.5L1204.5 1473.5C1204.5 1472.67 1205.17 1472 1206 1472C1206.83 1472 1207.5 1472.67 1207.5 1473.5L1207.5 1477.5C1207.5 1478.33 1206.83 1479 1206 1479ZM1197 1488C1197 1488.83 1196.33 1489.5 1195.5 1489.5L1191.5 1489.5C1190.67 1489.5 1190 1488.83 1190 1488C1190 1487.17 1190.67 1486.5 1191.5 1486.5L1195.5 1486.5C1196.33 1486.5 1197 1487.17 1197 1488ZM1206 1497C1206.83 1497 1207.5 1497.67 1207.5 1498.5L1207.5 1502.5C1207.5 1503.33 1206.83 1504 1206 1504C1205.17 1504 1204.5 1503.33 1204.5 1502.5L1204.5 1498.5C1204.5 1497.67 1205.17 1497 1206 1497ZM1212 1495.5C1212 1495.91 1212.17 1496.29 1212.44 1496.56L1215.94 1500.06C1216.21 1500.33 1216.5900000000001 1500.5 1217 1500.5C1217.83 1500.5 1218.5 1499.83 1218.5 1499C1218.5 1498.59 1218.33 1498.21 1218.06 1497.94L1214.56 1494.44C1214.29 1494.17 1213.9099999999999 1494 1213.5 1494C1212.67 1494 1212 1494.67 1212 1495.5Z " fill="#454546" transform="matrix(1,0,0,1,-1190,-1472)"></path></svg>
