<svg id="SvgjsSvg1008" xmlns="http://www.w3.org/2000/svg" version="1.1" xmlns:xlink="http://www.w3.org/1999/xlink" xmlns:svgjs="http://svgjs.com/svgjs" width="30" height="28"><defs id="SvgjsDefs1009"></defs><path id="SvgjsPath1010" d="M810.44 1195.64L801.32 1195.64L801.32 1198.0400000000002L803.24 1199.9600000000003L803.24 1200.4400000000003L790.76 1200.4400000000003L790.76 1199.9600000000003L792.68 1198.0400000000002L792.68 1195.64L783.56 1195.64C782.765 1195.64 782.1199999999999 1195 782.1199999999999 1194.2L782.1199999999999 1175C782.1199999999999 1174.2 782.7649999999999 1173.56 783.56 1173.56L810.4399999999999 1173.56C811.2349999999999 1173.56 811.88 1174.2 811.88 1175L811.88 1194.2C811.88 1195 811.235 1195.64 810.4399999999999 1195.64ZM809.96 1175.48L784.0400000000001 1175.48L784.0400000000001 1191.8L809.96 1191.8Z " fill="#1dde85" transform="matrix(1,0,0,1,-782,-1173)"></path></svg>