<svg xmlns="http://www.w3.org/2000/svg" xmlns:xlink="http://www.w3.org/1999/xlink"><symbol viewBox="0 0 512 512" id="guide_mouse"><g fill="#fff"><path fill="red" d="M284.5 182c0 15.7-12.8 28.5-28.5 28.5s-28.5-12.8-28.5-28.5v-49c0-15.7 12.8-28.5 28.5-28.5s28.5 12.8 28.5 28.5v49z"/><path d="M274 88c15 6.3 25.6 20 25.6 36v68c0 16-10.5 29.7-25.6 36v36.5h147V141.8C421 72.3 362.8 16 291 16h-17v72zM91 275v95.2C91 439.7 149.2 496 221 496h70c71.8 0 130-56.3 130-125.8V275H91zm147-10.5V228c-15-6.3-25.6-20-25.6-36v-68c0-16 10.5-29.7 25.6-36V16h-17C149.2 16 91 72.3 91 141.8v122.7h147z"/></g></symbol></svg>