<svg id="SvgjsSvg1000" xmlns="http://www.w3.org/2000/svg" version="1.1" xmlns:xlink="http://www.w3.org/1999/xlink"
     xmlns:svgjs="http://svgjs.com/svgjs" width="26" height="17">
  <defs id="SvgjsDefs1001"></defs>
  <path id="SvgjsPath1007"
        d="M618.676 2220.67C618.676 2223.83 616.005 2225.19 613.205 2225.19L605.696 2225.19L605.696 2209.51L612.99 2209.51C615.941 2209.51 617.938 2210.57 617.938 2213.4700000000003C617.938 2215.0000000000005 617.178 2216.0600000000004 615.831 2216.7200000000003C617.721 2217.2700000000004 618.676 2218.7300000000005 618.676 2220.67ZM630.663 2220.47L622.567 2220.47C622.654 2222.43 623.6080000000001 2223.16 625.322 2223.16C626.5600000000001 2223.16 627.5600000000001 2222.7599999999998 627.755 2222.06L630.223 2222.06C629.356 2224.72 627.755 2225.49 625.2149999999999 2225.49C621.6769999999999 2225.49 619.4849999999999 2223.0499999999997 619.4849999999999 2219.56C619.4849999999999 2216.17 621.8079999999999 2213.6 625.2149999999999 2213.6C629.0339999999999 2213.6 630.8789999999999 2217 630.6629999999999 2220.47ZM612.002 2212.15L608.8119999999999 2212.15L608.8119999999999 2215.79L612.262 2215.79C613.4549999999999 2215.79 614.3459999999999 2215.24 614.3459999999999 2213.94C614.3459999999999 2212.4500000000003 613.2169999999999 2212.15 612.0019999999998 2212.15ZM622.567 2218.16L627.581 2218.16C627.299 2216.5899999999997 626.625 2215.94 625.1270000000001 2215.94C623.1740000000001 2215.94 622.61 2217.29 622.5670000000001 2218.16ZM622.086 2211.06L628.304 2211.06L628.304 2212.65L622.086 2212.65ZM612.522 2218.12L608.812 2218.12L608.812 2222.4L612.457 2222.4C613.803 2222.4 614.974 2221.96 614.974 2220.35C614.974 2218.7599999999998 613.9770000000001 2218.12 612.522 2218.12Z "
        transform="matrix(1,0,0,1,-605,-2209)"></path>
</svg>