<svg id="SvgjsSvg1011" xmlns="http://www.w3.org/2000/svg" version="1.1" xmlns:xlink="http://www.w3.org/1999/xlink"
     xmlns:svgjs="http://svgjs.com/svgjs" width="20" height="17">
  <defs id="SvgjsDefs1012"></defs>
  <path id="SvgjsPath1013"
        d="M688.506 2209.26C690.052 2209.2400000000002 690.875 2209.8 691.661 2210.5200000000004C692.328 2210.4600000000005 693.1949999999999 2210.0900000000006 693.7059999999999 2209.8300000000004C693.8709999999999 2209.7400000000002 694.0369999999999 2209.6500000000005 694.2019999999999 2209.5600000000004C693.9109999999998 2210.3400000000006 693.5149999999999 2210.9600000000005 692.9069999999999 2211.4300000000003C692.7719999999999 2211.53 692.6379999999999 2211.67 692.4689999999999 2211.7400000000002L692.4689999999999 2211.7500000000005C693.3349999999999 2211.7400000000002 694.05 2211.3500000000004 694.728 2211.1400000000003C694.728 2211.1400000000003 694.728 2211.1400000000003 694.728 2211.1500000000005C694.372 2211.7100000000005 693.8889999999999 2212.2900000000004 693.375 2212.7000000000007C693.167 2212.870000000001 692.959 2213.0300000000007 692.751 2213.2000000000007C692.7629999999999 2214.1100000000006 692.7379999999999 2214.9900000000007 692.566 2215.7600000000007C691.5690000000001 2220.2400000000007 688.928 2223.2800000000007 684.7470000000001 2224.5900000000006C683.2450000000001 2225.0500000000006 680.8190000000001 2225.2400000000007 679.099 2224.8200000000006C678.2460000000001 2224.6100000000006 677.475 2224.370000000001 676.7520000000001 2224.0500000000006C676.35 2223.8800000000006 675.9780000000001 2223.6800000000007 675.623 2223.4700000000007C675.5060000000001 2223.4000000000005 675.389 2223.330000000001 675.272 2223.250000000001C675.6600000000001 2223.270000000001 676.114 2223.370000000001 676.548 2223.300000000001C676.94 2223.240000000001 677.325 2223.260000000001 677.687 2223.180000000001C678.59 2222.9800000000014 679.392 2222.720000000001 680.083 2222.3100000000013C680.4169999999999 2222.1200000000013 680.925 2221.8900000000012 681.163 2221.6000000000013C680.715 2221.6100000000015 680.309 2221.510000000001 679.975 2221.3900000000012C678.684 2220.930000000001 677.933 2220.1000000000013 677.4440000000001 2218.840000000001C677.835 2218.880000000001 678.9620000000001 2218.980000000001 679.2260000000001 2218.760000000001C678.7330000000001 2218.730000000001 678.2590000000001 2218.450000000001 677.9210000000002 2218.240000000001C676.8820000000002 2217.590000000001 676.0350000000002 2216.5000000000014 676.0410000000002 2214.820000000001C676.1780000000001 2214.880000000001 676.3140000000002 2214.950000000001 676.4500000000002 2215.010000000001C676.7110000000001 2215.1200000000013 676.9760000000001 2215.180000000001 677.2880000000001 2215.250000000001C677.4190000000001 2215.270000000001 677.6820000000001 2215.350000000001 677.8330000000001 2215.290000000001C677.8270000000001 2215.290000000001 677.82 2215.290000000001 677.8140000000001 2215.290000000001C677.613 2215.060000000001 677.2850000000001 2214.900000000001 677.0830000000001 2214.650000000001C676.417 2213.820000000001 675.792 2212.550000000001 676.1870000000001 2211.030000000001C676.2880000000001 2210.650000000001 676.4470000000001 2210.3100000000013 676.6160000000001 2209.990000000001C676.6220000000001 2210.0000000000014 676.6290000000001 2210.0000000000014 676.6350000000001 2210.0000000000014C676.7130000000001 2210.1700000000014 676.8860000000001 2210.2800000000016 676.9960000000001 2210.4200000000014C677.3360000000001 2210.8400000000015 677.7560000000001 2211.2200000000016 678.1840000000001 2211.5600000000013C679.6410000000001 2212.700000000001 680.9540000000001 2213.4000000000015 683.0620000000001 2213.9200000000014C683.5970000000001 2214.0500000000015 684.2150000000001 2214.1500000000015 684.8540000000002 2214.1500000000015C684.6750000000002 2213.6300000000015 684.7320000000002 2212.7800000000016 684.8730000000002 2212.2700000000013C685.2290000000002 2211.0000000000014 686.0000000000001 2210.0900000000015 687.1330000000002 2209.5900000000015C687.4030000000001 2209.4800000000014 687.7040000000002 2209.3900000000017 688.0190000000001 2209.3200000000015C688.1810000000002 2209.3000000000015 688.3430000000001 2209.2800000000016 688.5060000000001 2209.2600000000016Z "
        fill="#ffffff" transform="matrix(1,0,0,1,-675,-2209)"></path>
</svg>