<svg id="SvgjsSvg1008" xmlns="http://www.w3.org/2000/svg" version="1.1" xmlns:xlink="http://www.w3.org/1999/xlink"
     xmlns:svgjs="http://svgjs.com/svgjs" width="9" height="18">
  <defs id="SvgjsDefs1009"></defs>
  <path id="SvgjsPath1010"
        d="M656.001 2209.3C656.001 2210.29 656.001 2212.04 656.001 2212.04C656.001 2212.04 653.981 2211.84 653.475 2212.62C653.1990000000001 2213.04 653.363 2214.2799999999997 653.339 2215.17C654.22 2215.17 655.1360000000001 2215.17 656.018 2215.17C655.791 2216.21 655.629 2216.91 655.4630000000001 2217.82C654.7 2217.82 653.3240000000001 2217.82 653.3240000000001 2217.82L653.3240000000001 2226.3300000000004C653.3240000000001 2226.3300000000004 650.7990000000001 2226.3300000000004 649.6120000000001 2226.3300000000004C649.613 2223.7000000000003 649.6110000000001 2220.6400000000003 649.6120000000001 2217.8500000000004C649.0350000000001 2217.8500000000004 648.609 2217.8500000000004 648.032 2217.8500000000004C648.032 2216.8700000000003 648.032 2216.1500000000005 648.032 2215.1700000000005C648.592 2215.1700000000005 649.0350000000001 2215.1700000000005 649.594 2215.1700000000005C649.6740000000001 2213.2100000000005 649.705 2211.2700000000004 650.677 2210.2800000000007C651.7710000000001 2209.1700000000005 652.814 2209.3000000000006 656.001 2209.3000000000006Z "
        fill="#ffffff" transform="matrix(1,0,0,1,-648,-2209)"></path>
</svg>