<svg id="SvgjsSvg1000" xmlns="http://www.w3.org/2000/svg" version="1.1" xmlns:xlink="http://www.w3.org/1999/xlink" xmlns:svgjs="http://svgjs.com/svgjs" width="24" height="20"><defs id="SvgjsDefs1001"></defs><path id="SvgjsPath1007" d="M1141.89 4827L1143.21 4825.62C1143.21 4825.62 1138.78 4825.62 1137.31 4825.62C1134.6599999999999 4825.62 1132.1699999999998 4827.72 1132.1699999999998 4830.01C1132.1699999999998 4832.34 1133.9699999999998 4834.29 1136.6699999999998 4834.29C1136.85 4834.29 1137.0299999999997 4834.32 1137.2099999999998 4834.3C1137.0399999999997 4834.63 1136.9099999999999 4835.02 1136.9099999999999 4835.400000000001C1136.9099999999999 4836.05 1137.2699999999998 4836.59 1137.7199999999998 4837.02C1137.3799999999999 4837.02 1137.0499999999997 4837.030000000001 1136.6899999999998 4837.030000000001C1133.4099999999999 4837.030000000001 1130.7999999999997 4839.080000000001 1130.7999999999997 4841.210000000001C1130.7999999999997 4843.310000000001 1133.6599999999996 4844.880000000001 1136.9399999999998 4844.880000000001C1140.6799999999998 4844.880000000001 1142.6999999999998 4842.540000000001 1142.6999999999998 4840.440000000001C1142.6999999999998 4838.760000000001 1142.2399999999998 4837.750000000002 1140.6799999999998 4836.670000000001C1140.1399999999999 4836.300000000001 1139.12 4835.390000000001 1139.12 4834.860000000001C1139.12 4834.240000000001 1139.3 4833.9400000000005 1140.26 4833.200000000001C1141.23 4832.450000000001 1141.99 4831.490000000001 1141.99 4830.260000000001C1141.99 4828.800000000001 1141.26 4827.690000000001 1140.02 4827.000000000001ZM1153.2 4830.46L1153.2 4829.06L1149.7 4829.06L1149.7 4825.64L1148.3 4825.64L1148.3 4829.06L1144.8 4829.06L1144.8 4830.46L1148.3 4830.46L1148.3 4833.87L1149.7 4833.87L1149.7 4830.46ZM1138.79 4837.8C1140.02 4838.650000000001 1140.8999999999999 4839.12 1141.1499999999999 4840.08C1141.1999999999998 4840.2699999999995 1141.2199999999998 4840.47 1141.2199999999998 4840.68C1141.2199999999998 4842.37 1140.11 4843.52 1136.9199999999998 4843.52C1134.6599999999999 4843.52 1133.0199999999998 4842.280000000001 1133.0199999999998 4840.59C1133.0199999999998 4838.93 1135.0499999999997 4837.55 1137.3199999999997 4837.57C1137.8499999999997 4837.58 1138.3399999999997 4837.66 1138.7899999999997 4837.799999999999ZM1137.52 4833.76C1136 4833.72 1134.55 4832.09 1134.29 4830.13C1134.03 4828.16 1135.05 4826.66 1136.57 4826.71C1138.09 4826.75 1139.6 4828.33 1139.87 4830.29C1140.1299999999999 4832.25 1139.04 4833.81 1137.52 4833.76Z " fill="#8f8e91" transform="matrix(1,0,0,1,-1130,-4825)"></path></svg>