<svg id="SvgjsSvg1008" xmlns="http://www.w3.org/2000/svg" version="1.1" xmlns:xlink="http://www.w3.org/1999/xlink" xmlns:svgjs="http://svgjs.com/svgjs" width="24" height="22"><defs id="SvgjsDefs1009"></defs><path id="SvgjsPath1010" d="M1196.21 4845.92L1196.21 4838.16C1196.21 4836.5599999999995 1195.75 4834.97 1193.88 4834.97C1192 4834.97 1191.22 4836.56 1191.22 4838.1900000000005L1191.22 4845.92L1186.22 4845.92L1186.22 4831.7L1191.22 4831.7L1191.22 4833.62C1192.53 4831.95 1193.68 4831.26 1195.75 4831.26C1197.83 4831.26 1201.2 4832.22 1201.2 4837.84L1201.2 4845.92ZM1181.59 4829.6C1180.05 4829.6 1178.8 4828.47 1178.8 4827.09C1178.8 4825.7 1180.05 4824.58 1181.59 4824.58C1183.1399999999999 4824.58 1184.3899999999999 4825.7 1184.3899999999999 4827.09C1184.3899999999999 4828.47 1183.1399999999999 4829.6 1181.59 4829.6ZM1184.09 4831.7L1179.08 4831.7L1179.08 4845.92L1184.09 4845.92Z " fill="#8f8e91" transform="matrix(1,0,0,1,-1178,-4824)"></path></svg>