<svg xmlns="http://www.w3.org/2000/svg"
     viewBox="0 0 22.417 37.708">
  <path
    d="M4.481 1.561h6.483c.965 0 .967-1.5 0-1.5H4.481c-.965 0-.967 1.5 0 1.5zM1.025 17.589h9.986c.965 0 .967-1.5 0-1.5H1.025c-.965 0-.967 1.5 0 1.5z"/>
  <path
    d="M10.891 13.527v3.382c0 .483.75.483.75 0v-3.382c0-.483-.75-.484-.75 0zm-.93-7.559v5.957c0 .483.75.483.75 0V5.968c0-.483-.75-.484-.75 0z"/>
  <path
    d="M10.936 4.194c-.355.485-.653.998-.9 1.546-.197.436.449.818.648.379.247-.548.545-1.061.9-1.546.285-.391-.365-.765-.648-.379zm-.975 7.731c-.029.862.447 1.364 1.109 1.856.388.288.762-.362.379-.648-.451-.336-.757-.628-.737-1.208.016-.483-.734-.482-.751 0z"/>
  <path
    d="M10.891.91v3.382c0 .483.75.483.75 0V.91c0-.482-.75-.483-.75 0zM.08 16.328c.034 8.693-.626 21.149 10.931 21.338.966.016.966-1.484 0-1.5C.564 35.995 1.61 23.974 1.58 16.328c-.004-.965-1.504-.967-1.5 0z"/>
  <path
    d="M.08 5.798c.243 3.512.243 7.018 0 10.53-.067.963 1.434.959 1.5 0 .243-3.512.243-7.018 0-10.53-.066-.957-1.567-.965-1.5 0z"/>
  <path
    d="M1.58 5.798c.011-2.135 2.017-3.134 3.431-4.457C5.717.68 4.655-.379 3.95.281c-.937.876-2.036 1.643-2.894 2.598-.731.813-.97 1.845-.976 2.919-.005.966 1.495.967 1.5 0zM17.985.059h-6.483c-.965 0-.967 1.5 0 1.5h6.483c.965 0 .967-1.5 0-1.5zm3.456 16.028h-9.986c-.965 0-.967 1.5 0 1.5h9.986c.965 0 .966-1.5 0-1.5z"/>
  <path
    d="M10.825 13.525v3.382c0 .483.75.483.75 0v-3.382c0-.483-.75-.483-.75 0zm.929-7.559v5.957c0 .483.75.483.75 0V5.966c0-.483-.75-.483-.75 0z"/>
  <path
    d="M10.882 4.57c.355.485.653.998.9 1.546.198.439.845.058.648-.379-.247-.548-.545-1.061-.9-1.546-.283-.385-.934-.011-.648.379zm.872 7.353c.019.579-.287.873-.737 1.208-.383.285-.009.936.379.648.663-.493 1.138-.993 1.109-1.856-.017-.481-.767-.483-.751 0z"/>
  <path
    d="M10.825.909v3.382c0 .483.75.483.75 0V.909c0-.483-.75-.484-.75 0zm10.061 15.417c-.03 7.644 1.014 19.667-9.431 19.838-.964.016-.967 1.516 0 1.5 11.559-.19 10.897-12.639 10.931-21.338.003-.965-1.497-.966-1.5 0z"/>
  <path
    d="M20.886 5.797c-.243 3.512-.243 7.018 0 10.53.066.958 1.567.965 1.5 0-.243-3.512-.243-7.018 0-10.53.066-.964-1.434-.96-1.5 0z"/>
  <path
    d="M22.386 5.797c-.005-1.076-.244-2.105-.976-2.919-.858-.955-1.957-1.721-2.895-2.598-.704-.659-1.767.399-1.061 1.061 1.414 1.323 3.42 2.321 3.431 4.457.005.964 1.506.966 1.501-.001z"/>
</svg>
